<svg aria-hidden="true" style="position: absolute; width: 0; height: 0; overflow: hidden;" version="1.1" xmlns="http://www.w3.org/2000/svg" xmlns:xlink="http://www.w3.org/1999/xlink">
<defs>
<symbol id="icon-arrow-1" viewBox="0 0 32 32">
<path  d="M31.116 16.998c0.551-0.551 0.551-1.445 0-1.997l-8.984-8.984c-0.551-0.551-1.445-0.551-1.997 0s-0.551 1.445 0 1.997l7.986 7.986-7.986 7.986c-0.551 0.551-0.551 1.445 0 1.997s1.445 0.551 1.997 0l8.984-8.984zM0 17.412h30.118v-2.824h-30.118v2.824z"></path>
</symbol>
<symbol id="icon-arrow-2" viewBox="0 0 32 32">
<path fill="#066f14" style="fill: var(--color2, #066f14)" d="M30.12 17.029c0.568-0.568 0.568-1.489 0-2.057l-9.257-9.257c-0.568-0.568-1.489-0.568-2.057 0s-0.568 1.489 0 2.057l8.228 8.228-8.228 8.228c-0.568 0.568-0.568 1.489 0 2.057s1.489 0.568 2.057 0l9.257-9.257zM0 17.455h29.091v-2.909h-29.091v2.909z"></path>
</symbol>
<symbol id="icon-arrow-3" viewBox="0 0 32 32">
<path fill="#48654b" style="fill: var(--color3, #48654b)" d="M1.881 17.029c-0.568-0.568-0.568-1.489 0-2.057l9.257-9.257c0.568-0.568 1.489-0.568 2.057 0s0.568 1.489 0 2.057l-8.228 8.228 8.228 8.228c0.568 0.568 0.568 1.489 0 2.057s-1.489 0.568-2.057 0l-9.257-9.257zM32 17.455h-29.091v-2.909h29.091v2.909z"></path>
</symbol>
<symbol id="icon-facebook" viewBox="0 0 32 32">
<path fill="#066f14" style="fill: var(--color2, #066f14)" d="M23.417 1.339l-3.703-0.006c-4.16 0-6.849 2.833-6.849 7.219v3.328h-3.723c-0.322 0-0.582 0.268-0.582 0.598v4.823c0 0.33 0.261 0.598 0.582 0.598h3.723v12.169c0 0.331 0.261 0.598 0.582 0.598h4.858c0.322 0 0.582-0.268 0.582-0.598v-12.169h4.353c0.322 0 0.582-0.268 0.582-0.598l0.002-4.823c0-0.159-0.061-0.311-0.171-0.423s-0.258-0.175-0.412-0.175h-4.355v-2.822c0-1.356 0.315-2.045 2.034-2.045l2.495-0.001c0.321 0 0.582-0.268 0.582-0.598v-4.478c0-0.33-0.26-0.598-0.581-0.598z"></path>
</symbol>
<symbol id="icon-instagram" viewBox="0 0 32 32">
<path fill="#fff" style="fill: var(--color4, #fff)" d="M29.307 10.507c-0.062-1.417-0.292-2.391-0.62-3.235-0.339-0.896-0.86-1.698-1.542-2.365-0.667-0.677-1.474-1.203-2.36-1.537-0.849-0.328-1.818-0.557-3.235-0.62-1.427-0.068-1.881-0.083-5.501-0.083s-4.074 0.016-5.496 0.078c-1.417 0.062-2.391 0.292-3.235 0.62-0.896 0.339-1.698 0.86-2.365 1.542-0.677 0.667-1.203 1.474-1.537 2.36-0.328 0.849-0.557 1.818-0.62 3.235-0.068 1.427-0.083 1.881-0.083 5.501s0.016 4.074 0.078 5.496c0.062 1.417 0.292 2.391 0.62 3.235 0.339 0.896 0.865 1.698 1.542 2.365 0.667 0.677 1.474 1.203 2.36 1.537 0.849 0.328 1.818 0.557 3.235 0.62 1.422 0.063 1.875 0.078 5.496 0.078s4.074-0.015 5.496-0.078c1.417-0.062 2.391-0.292 3.235-0.62 1.792-0.693 3.209-2.11 3.902-3.902 0.328-0.849 0.557-1.818 0.62-3.235 0.062-1.422 0.078-1.875 0.078-5.496s-0.005-4.074-0.068-5.496zM26.906 21.394c-0.057 1.302-0.276 2.006-0.458 2.474-0.448 1.162-1.37 2.084-2.532 2.532-0.469 0.182-1.177 0.401-2.474 0.458-1.407 0.063-1.828 0.078-5.386 0.078s-3.985-0.015-5.387-0.078c-1.302-0.057-2.006-0.276-2.474-0.458-0.578-0.214-1.104-0.552-1.531-0.995-0.443-0.432-0.781-0.953-0.995-1.531-0.182-0.469-0.401-1.177-0.458-2.474-0.063-1.407-0.078-1.829-0.078-5.387s0.015-3.985 0.078-5.386c0.057-1.302 0.276-2.006 0.458-2.474 0.214-0.578 0.552-1.104 1-1.532 0.432-0.443 0.953-0.781 1.531-0.995 0.469-0.182 1.177-0.401 2.474-0.458 1.407-0.062 1.829-0.078 5.386-0.078 3.563 0 3.985 0.016 5.387 0.078 1.302 0.057 2.006 0.276 2.474 0.458 0.578 0.213 1.104 0.552 1.531 0.995 0.443 0.432 0.781 0.953 0.995 1.532 0.182 0.469 0.401 1.177 0.458 2.474 0.062 1.407 0.078 1.828 0.078 5.386s-0.016 3.975-0.078 5.381z"></path>
<path fill="#fff" style="fill: var(--color4, #fff)" d="M16.049 9.152c-3.782 0-6.85 3.068-6.85 6.85s3.068 6.85 6.85 6.85c3.782 0 6.85-3.068 6.85-6.85s-3.068-6.85-6.85-6.85zM16.049 20.446c-2.453 0-4.444-1.99-4.444-4.444s1.99-4.444 4.444-4.444c2.454 0 4.444 1.99 4.444 4.444s-1.99 4.444-4.444 4.444z"></path>
<path fill="#fff" style="fill: var(--color4, #fff)" d="M24.77 8.881c0 0.883-0.716 1.599-1.599 1.599s-1.599-0.716-1.599-1.599c0-0.883 0.716-1.599 1.599-1.599s1.599 0.716 1.599 1.599z"></path>
</symbol>
<symbol id="icon-instagram-filled" viewBox="0 0 32 32">
<path fill="#066f14" style="fill: var(--color2, #066f14)" d="M2.667 16c0-5.588 0-8.383 1.401-10.31 0.452-0.623 1-1.17 1.622-1.622 1.928-1.401 4.722-1.401 10.31-1.401s8.383 0 10.31 1.401c0.623 0.452 1.17 1 1.622 1.622 1.401 1.928 1.401 4.722 1.401 10.31s0 8.383-1.401 10.31c-0.452 0.623-1 1.17-1.622 1.622-1.928 1.401-4.722 1.401-10.31 1.401s-8.383 0-10.31-1.401c-0.623-0.452-1.17-1-1.622-1.622-1.401-1.928-1.401-4.722-1.401-10.31zM16 8.941c-3.898 0-7.059 3.161-7.059 7.059s3.161 7.059 7.059 7.059c3.898 0 7.059-3.161 7.059-7.059s-3.161-7.059-7.059-7.059zM16 20.412c-2.432 0-4.412-1.98-4.412-4.412 0-2.433 1.98-4.412 4.412-4.412s4.412 1.978 4.412 4.412c0 2.432-1.98 4.412-4.412 4.412zM24.529 8.412c0 0.519-0.421 0.941-0.941 0.941s-0.941-0.421-0.941-0.941c0-0.519 0.421-0.941 0.941-0.941s0.941 0.421 0.941 0.941z"></path>
</symbol>
<symbol id="icon-quotation-marks" viewBox="0 0 32 32">
<path fill="#143b19" style="fill: var(--color5, #143b19)" d="M6.591 13.427c0.39-2.454 3.458-5.076 5.856-5.131 0.167 0 0.335-0.056 0.446-0.167 0.112-0.056 0.223-0.112 0.279-0.279 0.837-1.562 0.39-2.789-1.004-3.793-1.618-1.171-4.183 0-5.466 1.060-3.235 2.677-6.526 7.306-6.358 11.713-0.558 2.956-0.446 6.135 0.39 8.757 0.558 1.673 2.175 2.51 3.848 2.621s5.131 0.614 6.637-0.39c1.506-1.004 1.617-2.956 1.785-4.629 0.167-1.841 0.669-5.299-0.892-6.749-1.562-1.394-6.024 0.112-5.522-3.012z"></path>
<path fill="#143b19" style="fill: var(--color5, #143b19)" d="M24.997 13.427c0.39-2.454 3.458-5.076 5.856-5.131 0.167 0 0.335-0.056 0.446-0.167 0.112-0.056 0.223-0.112 0.279-0.279 0.837-1.562 0.39-2.789-1.004-3.793-1.617-1.171-4.183 0-5.466 1.060-3.235 2.677-6.526 7.306-6.358 11.713-0.558 2.956-0.446 6.135 0.39 8.757 0.558 1.673 2.175 2.51 3.849 2.621s5.131 0.614 6.637-0.39c1.506-1.004 1.617-2.956 1.785-4.629 0.167-1.841 0.669-5.299-0.892-6.749-1.562-1.394-6.079 0.112-5.522-3.012z"></path>
</symbol>
<symbol id="icon-twitter" viewBox="0 0 32 32">
<path fill="#066f14" style="fill: var(--color2, #066f14)" d="M30 7.697c-1.031 0.437-2.136 0.734-3.298 0.866 1.186-0.68 2.094-1.759 2.525-3.041-1.113 0.63-2.341 1.087-3.65 1.335-1.048-1.071-2.539-1.737-4.192-1.737-3.172 0-5.744 2.463-5.744 5.498 0 0.431 0.051 0.851 0.149 1.253-4.773-0.23-9.005-2.419-11.838-5.746-0.495 0.811-0.777 1.756-0.777 2.764 0 1.908 1.015 3.592 2.555 4.577-0.941-0.030-1.827-0.278-2.602-0.69v0.069c0 2.664 1.981 4.887 4.607 5.393-0.481 0.124-0.989 0.193-1.513 0.193-0.371 0-0.73-0.035-1.081-0.102 0.731 2.186 2.852 3.776 5.365 3.82-1.965 1.474-4.442 2.351-7.133 2.351-0.464 0-0.92-0.027-1.37-0.075 2.542 1.563 5.56 2.474 8.804 2.474 10.566 0 16.342-8.38 16.342-15.648l-0.019-0.712c1.129-0.771 2.105-1.739 2.873-2.841z"></path>
</symbol>
<symbol id="icon-vector" viewBox="0 0 32 32">
<path fill="#f4c300" style="fill: var(--color6, #f4c300)" d="M16 25.347l-9.404 5.264 2.1-10.571-7.913-7.317 10.703-1.269 4.515-9.787 4.515 9.787 10.703 1.269-7.913 7.317 2.1 10.571-9.404-5.264z"></path>
</symbol>
</defs>
</svg>
